# File created by Blade
# Date/Time:  Wed Apr 08 17:35:25 2015
# Frame Rate: 120.000 fps
#------------------------------------------------------
:FULLY-SPECIFIED
:DEGREES
1899
root 8.872361 38.212377 4.997366 158.581669 -52.943287 -124.223425
Spine -12.819139 -2.371345 15.841483
Head 24.504206 -41.542123 20.069276
LeftShoulder -6.096219 18.371328 19.510527
LeftArm 22.710846 28.644770 -74.357919
LeftForeArm 18.015612 -0.000000 27.072971
LeftHand -13.726190 -0.000000 -10.645014
LeftHandThumb1 -26.253704 0.000000 33.147579
RightShoulder -40.056691 -46.917282 24.175847
RightArm 49.019944 -14.752799 53.952969
RightForeArm 8.264929 -0.000000 9.101768
RightHand 0.017345 -0.000000 7.386475
RightHandThumb1 -24.326973 -0.000000 -32.862282
LeftUpLeg -41.208204 37.025068 0.454967
LeftLeg 13.124963 -0.000000 -0.000000
LeftFoot -11.786975 17.668951 -5.228161
LeftToeBase 7.316396 -0.000000 -0.000000
RightUpLeg -88.311266 -21.954511 13.188942
RightLeg 133.045288 -0.000000 -0.000000
RightFoot 37.094126 -2.395027 26.459909
RightToeBase 6.382874 -0.000000 -0.000000
1900
root 8.872509 38.213553 4.992186 158.501036 -52.892921 -124.213486
Spine -12.753962 -2.369382 15.866757
Head 24.575903 -41.566640 20.101815
LeftShoulder -6.087632 18.315566 19.536034
LeftArm 22.670828 28.705603 -74.425993
LeftForeArm 17.986620 -0.000000 27.001850
LeftHand -13.666334 0.000000 -10.563205
LeftHandThumb1 -26.253704 0.000000 33.147579
RightShoulder -40.041048 -46.871163 24.194591
RightArm 49.029909 -14.787956 54.005934
RightForeArm 8.128319 -0.000000 9.129912
RightHand -0.004968 -0.000000 7.336790
RightHandThumb1 -24.326973 -0.000000 -32.862282
LeftUpLeg -41.128989 37.064257 0.543564
LeftLeg 13.157017 -0.000000 -0.000000
LeftFoot -11.755132 17.723958 -5.138554
LeftToeBase 7.261378 -0.000000 -0.000000
RightUpLeg -88.140693 -21.982199 12.749222
RightLeg 132.894381 -0.000000 -0.000000
RightFoot 35.504248 -2.815911 25.282495
RightToeBase 5.137043 -0.000000 -0.000000
1901
root 8.874347 38.219215 4.988521 158.465307 -52.833094 -124.178969
Spine -12.759937 -2.339548 15.903314
Head 24.640474 -41.609189 20.161898
LeftShoulder -6.080439 18.359237 19.547707
LeftArm 22.672022 28.669635 -74.480393
LeftForeArm 17.994264 -0.000000 27.038420
LeftHand -13.714225 -0.000000 -10.561111
LeftHandThumb1 -26.253704 0.000000 33.147579
RightShoulder -40.039945 -46.827138 24.245452
RightArm 49.006381 -14.804186 54.088732
RightForeArm 7.796736 -0.000000 9.151485
RightHand 0.122518 -0.000000 7.250746
RightHandThumb1 -24.326973 -0.000000 -32.862282
LeftUpLeg -41.081332 37.071037 0.637485
LeftLeg 13.128427 -0.000000 -0.000000
LeftFoot -11.671152 17.793838 -5.062782
LeftToeBase 7.159230 -0.000000 -0.000000
RightUpLeg -87.995349 -21.974116 12.279679
RightLeg 132.714759 -0.000000 -0.000000
RightFoot 33.583330 -3.036100 23.723741
RightToeBase 4.011981 -0.000000 -0.000000
1902
root 8.876156 38.225457 4.980324 158.403848 -52.834561 -124.091927
Spine -12.812946 -2.347363 15.929481
Head 24.695835 -41.684367 20.229761
LeftShoulder -6.061569 18.365202 19.580176
LeftArm 22.640625 28.690507 -74.520397
LeftForeArm 17.956567 -0.000000 27.083163
LeftHand -13.573163 0.000000 -10.618273
LeftHandThumb1 -26.253704 0.000000 33.147579
RightShoulder -40.080876 -46.775866 24.299041
RightArm 49.007220 -14.858508 54.165610
RightForeArm 7.598553 -0.000000 9.132924
RightHand 0.128122 -0.000000 7.313869
RightHandThumb1 -24.326973 -0.000000 -32.862282
LeftUpLeg -41.068409 37.035910 0.704787
LeftLeg 13.087939 -0.000000 -0.000000
LeftFoot -11.582131 17.848124 -4.977250
LeftToeBase 7.109484 -0.000000 -0.000000
RightUpLeg -87.807189 -22.021873 11.720682
RightLeg 132.537687 -0.000000 -0.000000
RightFoot 31.547731 -3.269006 22.494074
RightToeBase 2.371093 -0.000000 -0.000000
1903
root 8.881626 38.233381 4.979773 158.343412 -52.734182 -124.035639
Spine -12.779805 -2.300005 15.996679
Head 24.712917 -41.714146 20.301045
LeftShoulder -6.067848 18.358582 19.592034
LeftArm 22.591076 28.661697 -74.596841
LeftForeArm 17.933173 0.000000 27.143529
LeftHand -13.499068 -0.000000 -10.623123
LeftHandThumb1 -26.253704 0.000000 33.147579
RightShoulder -40.043913 -46.744459 24.297227
RightArm 49.046217 -14.915742 54.207713
RightForeArm 7.440894 -0.000000 9.089465
RightHand 0.131474 -0.000000 7.291597
RightHandThumb1 -24.326973 -0.000000 -32.862282
LeftUpLeg -41.031341 37.114641 0.782352
LeftLeg 13.023663 -0.000000 -0.000000
LeftFoot -11.508074 17.914582 -4.792054
LeftToeBase 7.184720 -0.000000 -0.000000
RightUpLeg -87.564839 -21.954984 11.106966
RightLeg 132.312421 -0.000000 -0.000000
RightFoot 29.321515 -3.567446 21.243448
RightToeBase 1.113651 -0.000000 -0.000000
1904
root 8.885477 38.241570 4.974655 158.238647 -52.635328 -123.944515
Spine -12.734759 -2.241825 16.074020
Head 24.695384 -41.758276 20.391900
LeftShoulder -6.057819 18.341560 19.609953
LeftArm 22.535904 28.643087 -74.664422
LeftForeArm 17.972321 -0.000000 27.224160
LeftHand -13.181655 -0.000000 -10.921470
LeftHandThumb1 -26.253704 0.000000 33.147579
RightShoulder -40.069931 -46.712856 24.353987
RightArm 49.100849 -14.989765 54.214232
RightForeArm 7.310841 -0.000000 9.084804
RightHand 0.049123 -0.000000 7.250570
RightHandThumb1 -24.326973 -0.000000 -32.862282
LeftUpLeg -40.959977 37.205959 0.887315
LeftLeg 12.935839 -0.000000 -0.000000
LeftFoot -11.448834 17.937570 -4.707594
LeftToeBase 7.216370 -0.000000 -0.000000
RightUpLeg -87.266378 -21.893280 10.455573
RightLeg 132.062826 -0.000000 -0.000000
RightFoot 26.948005 -3.908894 20.109066
RightToeBase 0.169943 -0.000000 -0.000000
1905
root 8.891151 38.249102 4.971792 158.184606 -52.587683 -123.864863
Spine -12.745962 -2.207599 16.121967
Head 24.661007 -41.805466 20.481560
LeftShoulder -6.045205 18.356203 19.637496
LeftArm 22.524701 28.675064 -74.675483
LeftForeArm 17.808710 0.000000 27.321679
LeftHand -13.396922 0.000000 -10.648748
LeftHandThumb1 -26.253704 0.000000 33.147579
RightShoulder -40.098498 -46.700241 24.409750
RightArm 49.138303 -15.043744 54.255395
RightForeArm 7.113039 -0.000000 9.106842
RightHand -0.046062 -0.000000 7.344029
RightHandThumb1 -24.326973 -0.000000 -32.862282
LeftUpLeg -40.932205 37.233699 0.939607
LeftLeg 12.831508 -0.000000 -0.000000
LeftFoot -11.365987 17.966645 -4.721295
LeftToeBase 7.097255 -0.000000 -0.000000
RightUpLeg -86.968518 -21.865965 9.708926
RightLeg 131.805159 -0.000000 -0.000000
RightFoot 24.302964 -4.268178 19.145863
RightToeBase -0.529189 -0.000000 0.000000
1906
root 8.897367 38.256559 4.970519 158.139162 -52.532840 -123.786316
Spine -12.757210 -2.173727 16.173296
Head 24.621349 -41.853878 20.564945
LeftShoulder -6.038959 18.352614 19.666780
LeftArm 22.490135 28.712327 -74.695948
LeftForeArm 17.746953 -0.000000 27.431047
LeftHand -13.272590 0.000000 -10.683783
LeftHandThumb1 -26.253704 0.000000 33.147579
RightShoulder -40.130506 -46.688671 24.463245
RightArm 49.182736 -15.092892 54.301117
RightForeArm 6.941193 -0.000000 9.123926
RightHand -0.106157 -0.000000 7.411456
RightHandThumb1 -24.326973 -0.000000 -32.862282
LeftUpLeg -40.935634 37.301314 0.951932
LeftLeg 12.718371 -0.000000 -0.000000
LeftFoot -11.288797 17.988824 -4.573023
LeftToeBase 7.209220 -0.000000 -0.000000
RightUpLeg -86.642616 -21.840288 8.933881
RightLeg 131.506610 -0.000000 -0.000000
RightFoot 21.458151 -4.480666 18.111439
RightToeBase -1.784743 -0.000000 0.000000
1907
root 8.905926 38.264198 4.967513 158.178358 -52.547180 -123.699124
Spine -12.901696 -2.184237 16.193869
Head 24.602191 -41.885723 20.631103
LeftShoulder -6.026263 18.347549 19.725820
LeftArm 22.395100 28.761495 -74.733411
LeftForeArm 17.706425 -0.000000 27.603681
LeftHand -13.392653 -0.000000 -10.626534
LeftHandThumb1 -26.253704 0.000000 33.147579
RightShoulder -40.170343 -46.693051 24.511978
RightArm 49.232896 -15.235752 54.288244
RightForeArm 6.686751 -0.000000 9.136092
RightHand -0.135675 -0.000000 7.318462
RightHandThumb1 -24.326973 -0.000000 -32.862282
LeftUpLeg -41.049101 37.272209 0.895638
LeftLeg 12.604077 -0.000000 -0.000000
LeftFoot -11.183440 18.046157 -4.487409
LeftToeBase 7.254979 -0.000000 -0.000000
RightUpLeg -86.380337 -21.840322 8.154441
RightLeg 131.188495 -0.000000 -0.000000
RightFoot 18.300514 -4.561297 16.821518
RightToeBase -2.956230 -0.000000 0.000000
1908
root 8.915896 38.271609 4.964623 158.163248 -52.502882 -123.608218
Spine -12.963204 -2.143599 16.237290
Head 24.566485 -41.912932 20.693345
LeftShoulder -6.006790 18.354306 19.775832
LeftArm 22.362540 28.823106 -74.728707
LeftForeArm 17.661560 -0.000000 27.756380
LeftHand -13.464023 -0.000000 -10.541873
LeftHandThumb1 -26.253704 0.000000 33.147579
RightShoulder -40.204487 -46.689438 24.552204
RightArm 49.285361 -15.343493 54.302424
RightForeArm 6.559070 -0.000000 9.129193
RightHand -0.239325 0.000000 7.390071
RightHandThumb1 -24.326973 -0.000000 -32.862282
LeftUpLeg -41.129186 37.340998 0.865723
LeftLeg 12.506138 -0.000000 -0.000000
LeftFoot -11.084381 18.059751 -4.366134
LeftToeBase 7.259035 -0.000000 -0.000000
RightUpLeg -86.010997 -21.765840 7.272243
RightLeg 130.819034 -0.000000 -0.000000
RightFoot 14.959690 -4.366371 15.730883
RightToeBase -3.622324 -0.000000 0.000000
1909
root 8.925434 38.278584 4.966800 158.181178 -52.469779 -123.527521
Spine -13.049912 -2.099304 16.283818
Head 24.528269 -41.910887 20.744194
LeftShoulder -6.002908 18.366597 19.804993
LeftArm 22.361574 28.880708 -74.707461
LeftForeArm 17.629173 -0.000000 27.893682
LeftHand -13.451305 0.000000 -10.563455
LeftHandThumb1 -26.253704 0.000000 33.147579
RightShoulder -40.277669 -46.701246 24.627063
RightArm 49.396079 -15.484132 54.229661
RightForeArm 6.516300 0.000000 9.068625
RightHand -0.225860 -0.000000 7.218275
RightHandThumb1 -24.326973 -0.000000 -32.862282
LeftUpLeg -41.245002 37.429028 0.782400
LeftLeg 12.396424 -0.000000 -0.000000
LeftFoot -10.995480 17.991151 -4.289983
LeftToeBase 7.229837 -0.000000 -0.000000
RightUpLeg -85.713575 -21.716786 6.523057
RightLeg 130.451289 -0.000000 -0.000000
RightFoot 11.359213 -4.454501 14.830314
RightToeBase -4.213770 -0.000000 0.000000
1910
root 8.937450 38.286025 4.968421 158.216035 -52.444119 -123.429928
Spine -13.171723 -2.058749 16.334243
Head 24.492750 -41.891859 20.782279
LeftShoulder -6.006628 18.374556 19.837524
LeftArm 22.367342 28.984313 -74.652600
LeftForeArm 17.598025 0.000000 28.038456
LeftHand -13.461466 -0.000000 -10.535764
LeftHandThumb1 -26.253704 0.000000 33.147579
RightShoulder -40.332070 -46.713533 24.683307
RightArm 49.482207 -15.622718 54.177103
RightForeArm 6.433141 -0.000000 9.017903
RightHand -0.241296 -0.000000 6.984725
RightHandThumb1 -24.326973 -0.000000 -32.862282
LeftUpLeg -41.418612 37.497803 0.690410
LeftLeg 12.326406 -0.000000 -0.000000
LeftFoot -10.915611 17.932001 -4.225239
LeftToeBase 7.255521 -0.000000 -0.000000
RightUpLeg -85.460760 -21.658304 5.819901
RightLeg 130.043365 -0.000000 -0.000000
RightFoot 7.898541 -4.529187 13.937435
RightToeBase -5.193460 -0.000000 0.000000
